<?xml version="1.0" encoding="UTF-8"?>
<svg width="458px" height="39px" viewBox="0 0 458 39" version="1.1" xmlns="http://www.w3.org/2000/svg" xmlns:xlink="http://www.w3.org/1999/xlink">
    <!-- Generator: Sketch 56.3 (81716) - https://sketch.com -->
    <title>logo_black4</title>
    <desc>Created with Sketch.</desc>
    <g id="TOPページ" stroke="none" stroke-width="1" fill="none" fill-rule="evenodd">
        <g id="PC_TOP0628-Copy" transform="translate(-479.000000, -158.000000)" fill="#333333">
            <g id="logo_black4" transform="translate(479.000000, 158.000000)">
                <g id="ロケットアイコン" fill-rule="nonzero">
                    <path d="M10.490803,19.3499654 L14.375,13.5648721 C14.375,13.5648721 8.57296566,11.3316543 5.87023034,13.333336 C3.16757265,15.336146 0.625,20.8815038 0.625,20.8815038 L3.50598713,22.5 C3.50598713,22.5 7.15246331,15.6535115 10.490803,19.3499654 Z" id="Shape"></path>
                    <path d="M21.2742101,28.8841751 L27.0599997,25 C27.0599997,25 29.2934863,30.8020016 27.2915637,33.5047216 C25.2885126,36.2061995 19.7424873,38.75 19.7424873,38.75 L18.125,35.8690291 C18.125,35.8689515 24.9723126,32.2224959 21.2742101,28.8841751 Z" id="Shape"></path>
                    <path d="M16.8326799,28.0275517 L15.8614605,27.0572391 C14.0960081,31.6465059 9.94903414,30.6762669 9.94903414,30.6762669 C9.94903414,30.6762669 8.97891808,26.5284526 13.5673287,24.7626425 L12.5972126,23.7923298 C10.0375274,23.3508773 6.77210266,26.4398677 6.24224627,29.4404205 C5.7134933,32.4408997 5.625,35 5.625,35 C5.625,35 8.18350824,34.9125924 11.1845565,34.3826286 C14.1856048,33.8526649 17.274043,30.5877556 16.8326799,28.0275517 Z" id="Shape"></path>
                    <path d="M38.8654113,0.509695571 C34.7687284,-1.41048561 24.3942728,2.18062572 18.6243901,9.83335484 C14.2278948,15.6622317 11.875,19.5897416 11.875,19.5897416 L15.367242,23.0821158 L16.2938458,24.0087547 L19.7849589,27.5 C19.7849589,27.5 23.714653,25.1482202 29.5433091,20.7527625 C37.1933404,14.981382 40.7855198,4.60653362 38.8654113,0.509695571 Z M21.5122664,17.8634976 C20.5480355,16.8992302 20.5480355,15.3353155 21.5122664,14.3711234 C22.4764972,13.4069313 24.0391487,13.406856 25.0045083,14.3723275 C25.9687392,15.3365948 25.9687392,16.8993055 25.0045083,17.8635728 C24.0391487,18.8277649 22.476422,18.8277649 21.5122664,17.8634976 Z M27.3009626,12.0757863 C26.0545289,10.8281765 26.0545289,8.80797884 27.3009626,7.56157317 C28.5461923,6.31509224 30.5674422,6.31509224 31.813876,7.56157317 C33.0603097,8.8080541 33.0603097,10.8281765 31.813876,12.0757863 C30.5674422,13.3210631 28.5461923,13.3210631 27.3009626,12.0757863 Z" id="Shape"></path>
                </g>
                <path d="M81.944626,3.32980478 L84.9905267,6.86264644 C84.4422545,7.55297182 84.3304097,7.7560087 83.7938652,9.13665946 C80.8092391,16.6896313 77.6131195,21.7655532 73.0470584,26.394794 C68.6201042,30.9022127 63.6305876,34.1508027 56.0747021,37.4400001 C54.9987429,34.3538396 54.3307047,33.2574404 52.1046869,30.617961 C58.1640279,28.7094144 62.7525343,26.2323645 66.8330025,22.6589155 C70.7343638,19.2072886 73.3539389,15.5120174 75.3582137,10.6391324 L58.7582137,10.6391324 C54.8782137,10.6391324 54.1518448,10.6797397 52,10.8827766 L53.1527812,3.53284166 C54.8281985,3.81709329 56.0218296,3.85770066 59.9418296,3.85770066 L78.9418296,3.85770066 C80.2618296,3.85770066 81.0009364,3.73587854 81.944626,3.32980478 Z M98.0284326,2.03036877 L105.788433,2.03036877 C105.335461,3.89830804 105.180819,4.62924079 104.734992,7.47175707 L103.46757,15.5526248 C103.015374,18.4357484 102.851567,19.7351844 102.756809,21.3594795 L94.9968091,21.3594795 C95.4260915,19.8976139 95.689005,18.4763558 96.1666768,15.4308026 L97.4277303,7.39054232 C97.8162367,4.91349242 97.9481985,3.81709329 98.0284326,2.03036877 Z M116.628433,2.03036877 L124.388433,2.03036877 C123.871771,4.30438179 123.736237,4.91349242 123.328623,7.51236445 L122.583455,12.2634274 C121.710908,17.8266378 120.779488,21.7249458 119.810089,24.0801736 C117.915873,28.5063775 114.673618,31.8361823 109.872374,34.394447 C107.382198,35.7344903 105.12845,36.5872452 101.030119,37.7242517 C100.53684,35.0035576 99.8043357,33.2980478 98.0392111,30.7803905 C101.993852,30.0494578 104.135756,29.3997398 106.347717,28.3033406 C110.167058,26.394794 112.342827,23.9989589 113.543295,20.4255098 C114.018947,18.9230369 114.779415,15.3495879 115.333514,11.8167462 L115.995886,7.5935792 C116.460819,4.62924079 116.554567,3.77648591 116.628433,2.03036877 Z M132.22842,22.9431671 L133.457628,15.1059436 C135.293046,15.3901953 137.440308,15.47141 141.600308,15.47141 L160.720308,15.47141 C164.720308,15.47141 166.253046,15.3901953 168.977628,15.1059436 L167.74842,22.9431671 C165.860265,22.7401302 164.106634,22.6995228 159.546634,22.6995228 L140.506634,22.6995228 C136.026634,22.6995228 134.700265,22.7401302 132.22842,22.9431671 Z M181.5294,8.52754883 L182.599384,1.70550977 C184.121171,1.94915402 185.588433,2.03036877 188.428433,2.03036877 L201.188433,2.03036877 C204.348433,2.03036877 206.081171,1.94915402 207.519384,1.70550977 L206.4494,8.52754883 C204.948506,8.40572671 203.081244,8.32451195 200.321244,8.32451195 L187.361244,8.32451195 C184.201244,8.32451195 183.314875,8.36511933 181.5294,8.52754883 Z M176.61716,18.6793927 L177.687145,11.8573536 C179.448931,12.1009979 180.716193,12.1822126 184.076193,12.1822126 L204.156193,12.1822126 C206.076193,12.1822126 206.362562,12.1416052 207.426252,11.7355315 L210.01126,15.146551 C209.416618,15.8774838 209.311142,16.0399133 208.490015,17.7048157 C205.461041,23.7553146 201.867717,28.3033406 197.425463,31.6331454 C193.97785,34.2320175 190.84946,35.8157051 185.031906,37.967896 C184.367674,35.5720608 183.508801,33.9071584 181.596415,31.3082864 C186.593852,30.0494578 189.677659,28.7500218 192.901583,26.5572235 C196.165506,24.3644252 198.288537,22.0498048 200.335374,18.4357484 L183.015374,18.4357484 C179.855374,18.4357484 179.169005,18.4763558 176.61716,18.6793927 Z M219.844817,8.81180046 L225.34284,3.08616053 C229.911537,6.09110631 232.218565,7.95904558 235.094524,11.0452061 L229.380967,17.3799567 C226.480542,13.6846855 223.500893,11.0045987 219.844817,8.81180046 Z M218.044878,36.0999567 L217.187717,28.3033406 C221.318669,27.9784816 225.677893,26.9632973 229.686282,25.3796096 C235.057468,23.2680261 239.13514,20.2224729 242.979415,15.3495879 C245.067028,12.7507159 246.497321,10.5173102 248.14773,7.39054232 C249.731962,9.78637747 250.524583,10.598525 253.17429,12.8319306 C248.279606,20.8315836 243.728069,25.6232539 237.554862,29.2779177 C232.789035,32.1204339 228.753384,33.6229068 221.039519,35.369024 C219.422198,35.7344903 219.175829,35.7750977 218.044878,36.0999567 Z M291.754628,31.0646422 L285.212023,37.0745337 C282.432608,32.6077224 279.466707,29.0748808 275.540807,25.5420391 C271.073852,30.0494578 265.753384,33.6229068 259.075712,36.66846 C258.121539,33.8259437 257.472608,32.6077224 255.602008,30.2524947 C261.120455,28.2221259 265.654438,25.5826465 269.848537,22.0498048 C274.135374,18.4357484 277.142211,14.821692 279.76101,10.1112365 L269.335534,10.273666 C265.882796,10.3548807 264.590059,10.4360955 262.911845,10.6797397 L263.845519,3.45162691 C265.373674,3.65466378 266.440936,3.73587854 268.000936,3.73587854 C268.320936,3.73587854 269.080936,3.73587854 270.247305,3.69527116 L283.95915,3.49223428 C285.845519,3.45162691 286.085519,3.45162691 287.229209,3.04555315 L290.176003,6.70021694 C289.480468,7.30932757 289.176779,7.71540132 288.360234,9.09605209 C285.444114,14.171974 283.478287,17.0144903 280.760616,20.0600434 C285.046516,23.5928851 286.463603,25.0141432 291.754628,31.0646422 Z M333.754628,31.0646422 L327.212023,37.0745337 C324.432608,32.6077224 321.466707,29.0748808 317.540807,25.5420391 C313.073852,30.0494578 307.753384,33.6229068 301.075712,36.66846 C300.121539,33.8259437 299.472608,32.6077224 297.602008,30.2524947 C303.120455,28.2221259 307.654438,25.5826465 311.848537,22.0498048 C316.135374,18.4357484 319.142211,14.821692 321.76101,10.1112365 L311.335534,10.273666 C307.882796,10.3548807 306.590059,10.4360955 304.911845,10.6797397 L305.845519,3.45162691 C307.373674,3.65466378 308.440936,3.73587854 310.000936,3.73587854 C310.320936,3.73587854 311.080936,3.73587854 312.247305,3.69527116 L325.95915,3.49223428 C327.845519,3.45162691 328.085519,3.45162691 329.229209,3.04555315 L332.176003,6.70021694 C331.480468,7.30932757 331.176779,7.71540132 330.360234,9.09605209 C327.444114,14.171974 325.478287,17.0144903 322.760616,20.0600434 C327.046516,23.5928851 328.463603,25.0141432 333.754628,31.0646422 Z M355.30688,0 L362.243967,1.42125814 C362.191229,1.50247289 361.452898,2.6394794 359.969868,4.9540998 L370.748975,4.83227767 C371.908975,4.83227767 372.448081,4.71045554 373.271771,4.30438179 L376.271303,7.87783083 C375.708506,8.40572671 375.550293,8.64937096 375.077438,9.62394797 C371.583763,16.8520608 368.775916,21.2376573 365.17902,25.2983949 C362.07129,28.7906291 358.307249,31.8767897 354.019636,34.4756617 C351.636722,35.8969198 349.856605,36.7902821 346.553692,38.2115402 C345.487674,35.5720608 344.725112,34.3132322 342.829035,32.1204339 C349.252959,29.9276357 353.508728,27.5318005 357.694672,23.795922 C355.539488,21.7249458 353.783295,20.4255098 351.044422,18.7606074 L356.046911,13.6440781 C359.301201,15.5932321 360.453822,16.4053797 362.68085,18.2733189 C364.722094,15.7150543 366.026018,13.522256 367.286369,10.8421692 L356.193631,10.923384 C353.236735,14.9841215 349.954481,18.3139263 345.347644,21.9279827 C343.758829,19.8163992 342.678053,18.8012148 340.307336,17.3393493 C345.619649,13.5628634 349.028272,10.1924512 352.095226,5.68503255 C353.540043,3.61405641 354.493908,1.86793927 355.30688,0 Z M381.82842,22.9431671 L383.057628,15.1059436 C384.893046,15.3901953 387.040308,15.47141 391.200308,15.47141 L410.320308,15.47141 C414.320308,15.47141 415.853046,15.3901953 418.577628,15.1059436 L417.34842,22.9431671 C415.460265,22.7401302 413.706634,22.6995228 409.146634,22.6995228 L390.106634,22.6995228 C385.626634,22.6995228 384.300265,22.7401302 381.82842,22.9431671 Z M436.757499,36.9121042 L429.037499,36.9121042 C429.484102,35.0847723 429.748801,33.9071584 430.251949,30.6991758 L433.958682,7.06568332 C434.474567,3.77648591 434.498257,3.37041216 434.602181,1.17761389 L442.322181,1.17761389 C441.977481,2.35522777 441.619033,4.38559654 441.192313,7.10629069 L440.319766,12.6695011 C446.763104,14.9435141 451.547336,17.3393493 457.195023,21.1158352 L452.3123,28.019089 C448.85902,25.2983949 444.553002,22.6589155 440.820499,20.9534057 C439.509664,20.3849024 439.509664,20.3849024 439.147878,20.1412582 L437.491949,30.6991758 C437.065229,33.4198699 436.826781,35.4502387 436.757499,36.9121042 Z" id="フリーランススタート"></path>
            </g>
        </g>
    </g>
</svg>